<?xml version="1.0" encoding="utf-8"?>
<!-- Generator: Adobe Illustrator 26.1.0, SVG Export Plug-In . SVG Version: 6.00 Build 0)  -->
<svg version="1.1" id="Layer_1" xmlns="http://www.w3.org/2000/svg" xmlns:xlink="http://www.w3.org/1999/xlink" x="0px" y="0px"
	 viewBox="0 0 468 101" style="enable-background:new 0 0 468 101;" xml:space="preserve">
<style type="text/css">
	.st0{fill:#7700FF;}
	.st1{opacity:0.7;fill:#CCCCCC;}
	.st2{fill:#36D9FF;}
	.st3{fill:#FFC000;}
	.st4{opacity:0.5;fill:#EAEAEA;}
	.st5{fill:#E22624;}
	.st6{fill:#F2F2F2;}
	.st7{font-family:'Ubuntu';}
	.st8{font-size:60px;}
	.st9{font-family:'Ubuntu-Bold';}
</style>
<g>
	<polygon class="st0" points="61,0 27.3,33.7 61,67.4 67.7,60.7 40.8,33.7 67.7,6.7 	"/>
	<polygon class="st1" points="74.5,13.5 67.7,20.2 81.2,33.7 67.7,47.2 74.5,53.9 94.7,33.7 	"/>
	<rect x="56.2" y="28.9" transform="matrix(0.7071 -0.7071 0.7071 0.7071 -5.9723 53.0079)" class="st2" width="9.5" height="9.5"/>
	<rect x="15.8" y="42.4" transform="matrix(0.7071 -0.7071 0.7071 0.7071 -27.3571 28.351)" class="st3" width="9.5" height="9.5"/>
	<rect x="2.3" y="55.9" transform="matrix(0.7071 -0.7071 0.7071 0.7071 -40.8424 22.7652)" class="st4" width="9.5" height="9.5"/>
	<rect x="13" y="62.7" transform="matrix(0.7071 -0.7071 0.7071 0.7071 -39.6855 39.0434)" class="st5" width="28.6" height="9.5"/>
	<rect x="2.3" y="82.9" transform="matrix(0.7071 -0.7071 0.7071 0.7071 -59.9135 30.6647)" class="st4" width="9.5" height="9.5"/>
	<rect x="34.6" y="72.8" transform="matrix(0.7071 -0.7071 0.7071 0.7071 -41.9 53.9251)" class="st3" width="19.1" height="9.5"/>
	
		<rect x="22.5" y="89.6" transform="matrix(0.7071 -0.7071 0.7071 0.7071 -58.7566 46.9429)" class="st4" width="9.5" height="9.5"/>
</g>
<text transform="matrix(1 0 0 1 118.5088 54.3852)"><tspan x="0" y="0" class="st6 st7 st8">SRC</tspan><tspan x="106.9" y="0" class="st6 st9 st8">LAUNCH</tspan></text>
</svg>
