<?xml version="1.0" encoding="UTF-8" standalone="yes"?>
<!DOCTYPE svg PUBLIC "-//W3C//DTD SVG 1.1//EN" "http://www.w3.org/Graphics/SVG/1.1/DTD/svg11.dtd">

<svg width="273" height="54" viewBox="0 0 273 54" xmlns="http://www.w3.org/2000/svg" xmlns:xlink="http://www.w3.org/1999/xlink" version="1.1" baseProfile="full">
    <g transform="scale(1.000000,-1.000000) translate(0,-54)">
        <path d="M 1.000000 4.798315 L 13.551372 17.296940 L 17.333725 13.498625 L 4.782353 1.000000 Z" transform="scale(1.000000,1.000000) translate(9.333214,5.898898)" fill="#e22624" opacity="0.639310"></path>
        <path d="M 1.000000 4.790342 L 6.373735 10.164078 L 10.164078 6.373736 L 4.790343 1.000000 Z" transform="scale(1.000000,1.000000) translate(24.001657,5.510870)" fill="#36d9ff" opacity="0.836753"></path>
        <path d="M 1.000000 4.790342 L 9.837569 13.627912 L 13.627912 9.837570 L 4.790343 1.000000 Z" transform="scale(1.000000,1.000000) translate(5.516680,17.114047)" fill="#ffc000" opacity="0.836753"></path>
        <path d="M 1.000000 4.790342 L 4.673933 8.464276 L 8.464276 4.673934 L 4.790343 1.000000 Z" transform="scale(1.000000,1.000000) translate(17.574897,-0.915890)" fill="#d7d7d7" opacity="0.292248"></path>
        <path d="M 1.000000 4.790342 L 4.673933 8.464276 L 8.464276 4.673934 L 4.790343 1.000000 Z" transform="scale(1.000000,1.000000) translate(2.905023,-0.498106)" fill="#d7d7d7" opacity="0.292248"></path>
        <path d="M 1.000000 4.790342 L 4.673933 8.464276 L 8.464276 4.673934 L 4.790343 1.000000 Z" transform="scale(1.000000,1.000000) translate(-0.697522,10.899844)" fill="#d7d7d7" opacity="0.292248"></path>
        <path d="M 23.867500 4.950900 L 8.779300 20.039100 L 23.741500 35.001200 L 19.913000 38.829800 L 1.000000 19.916800 L 4.828500 16.088300 L 19.916700 1.000000 Z" transform="scale(1.000000,1.000000) translate(18.146000,14.690100)" fill="#651bff" opacity="0.591631"></path>
        <path d="M 12.091000 8.254500 L 12.109000 8.236400 L 15.943800 12.071200 L 15.925800 12.089300 L 15.926700 12.090200 L 12.090200 15.926700 L 12.089300 15.925800 L 4.851500 23.163600 L 1.016700 19.328800 L 8.254500 12.091000 L 1.000000 4.836500 L 4.836500 1.000000 Z" transform="scale(1.000000,1.000000) translate(41.144500,22.523200)" fill="#e2e2e2" opacity="0.504831"></path>
        <path d="M 1.000000 1.456000 L 17.112000 1.456000 L 17.112000 5.598000 L 6.396000 5.598000 L 6.396000 27.524000 L 1.000000 27.524000 Z M 18.518000 1.456000 L 23.458000 1.456000 L 25.586000 7.688000 L 34.858000 7.688000 L 37.024000 1.456000 L 42.572000 1.456000 L 33.414000 27.524000 L 27.790000 27.524000 Z M 30.070000 21.406000 L 30.222000 21.406000 L 33.604000 11.526000 L 26.802000 11.526000 Z M 55.986000 1.000000 C 62.864000 1.000000 66.094000 4.154000 66.094000 10.766000 L 66.094000 27.524000 L 61.154000 27.524000 L 61.154000 10.994000 C 61.154000 6.510000 59.596000 5.066000 56.176000 5.066000 C 52.642000 5.066000 50.894000 6.548000 50.894000 10.956000 L 50.894000 27.524000 L 45.460000 27.524000 L 45.460000 10.652000 C 45.460000 4.192000 49.108000 1.000000 55.986000 1.000000 Z M 71.262000 1.456000 L 76.012000 1.456000 L 76.012000 20.152000 L 76.126000 20.152000 L 86.918000 1.456000 L 92.238000 1.456000 L 92.238000 27.524000 L 87.488000 27.524000 L 87.488000 10.196000 L 87.374000 10.196000 L 77.304000 27.524000 L 71.262000 27.524000 Z M 108.274000 1.038000 C 111.466000 1.038000 113.822000 1.646000 115.532000 2.596000 L 115.532000 6.662000 C 114.088000 6.016000 112.302000 5.332000 109.414000 5.332000 C 104.132000 5.332000 102.080000 8.562000 102.080000 14.186000 L 102.080000 15.478000 C 102.080000 21.292000 104.930000 23.724000 109.376000 23.724000 C 111.770000 23.724000 113.480000 23.192000 115.342000 22.584000 L 115.342000 26.650000 C 113.784000 27.486000 111.694000 27.942000 108.692000 27.942000 C 101.852000 27.942000 96.304000 24.408000 96.304000 14.984000 L 96.304000 14.034000 C 96.304000 5.256000 100.902000 1.038000 108.274000 1.038000 Z M 119.446000 1.456000 L 124.842000 1.456000 L 124.842000 12.818000 L 135.140000 12.818000 L 135.140000 1.456000 L 140.574000 1.456000 L 140.574000 27.524000 L 135.140000 27.524000 L 135.140000 16.922000 L 124.842000 16.922000 L 124.842000 27.524000 L 119.446000 27.524000 Z" transform="scale(1.000000,1.000000) translate(132.275295,18.452259)" fill="#f9f9f9" opacity="0.853585"></path>
        <path d="M 8.334000 1.000000 C 14.300000 1.000000 16.922000 4.002000 16.922000 8.524000 C 16.922000 12.780000 14.566000 14.490000 10.804000 15.706000 L 8.182000 16.580000 C 5.446000 17.492000 4.686000 18.518000 4.686000 20.836000 C 4.686000 23.192000 6.358000 24.560000 9.284000 24.560000 C 12.058000 24.560000 14.110000 23.876000 15.630000 23.192000 L 15.630000 26.004000 C 14.224000 26.726000 12.476000 27.410000 9.398000 27.410000 C 4.040000 27.410000 1.304000 24.560000 1.304000 20.532000 C 1.304000 16.580000 3.394000 14.718000 6.814000 13.578000 L 9.474000 12.704000 C 12.438000 11.678000 13.502000 10.652000 13.502000 8.258000 C 13.502000 5.560000 11.868000 3.850000 8.144000 3.850000 C 5.446000 3.850000 2.976000 4.496000 1.000000 5.522000 L 1.000000 2.672000 C 2.710000 1.722000 5.104000 1.000000 8.334000 1.000000 Z M 21.596000 1.456000 L 24.940000 1.456000 L 24.940000 12.248000 L 29.500000 12.248000 L 35.656000 1.456000 L 39.494000 1.456000 L 32.806000 12.856000 L 32.806000 13.046000 C 35.808000 14.110000 37.632000 16.086000 37.632000 19.734000 C 37.632000 24.522000 34.706000 26.992000 29.082000 26.992000 L 21.596000 26.992000 Z M 24.940000 14.908000 L 24.940000 24.104000 L 28.854000 24.104000 C 32.502000 24.104000 34.098000 22.850000 34.098000 19.658000 C 34.098000 16.390000 32.578000 14.908000 28.892000 14.908000 Z M 53.022000 1.038000 C 55.986000 1.038000 58.380000 1.646000 60.166000 2.672000 L 60.166000 5.522000 C 58.532000 4.762000 56.594000 3.888000 53.516000 3.888000 C 47.778000 3.888000 45.460000 7.612000 45.460000 13.920000 L 45.460000 15.288000 C 45.460000 21.900000 48.804000 24.560000 53.326000 24.560000 C 55.872000 24.560000 57.734000 24.028000 59.862000 23.230000 L 59.862000 26.004000 C 58.304000 26.878000 56.252000 27.410000 53.592000 27.410000 C 47.094000 27.410000 41.850000 23.952000 41.850000 14.756000 L 41.850000 13.882000 C 41.850000 5.218000 46.220000 1.038000 53.022000 1.038000 Z" transform="scale(1.000000,1.000000) translate(66.482484,18.718045)" fill="#ffffff" opacity="0.849122"></path>
    </g>
</svg>