<?xml version="1.0" encoding="utf-8"?>
<!-- Generator: Adobe Illustrator 26.1.0, SVG Export Plug-In . SVG Version: 6.00 Build 0)  -->
<svg version="1.1" id="Layer_1" xmlns="http://www.w3.org/2000/svg" xmlns:xlink="http://www.w3.org/1999/xlink" x="0px" y="0px"
	 viewBox="0 0 119 127" style="enable-background:new 0 0 119 127;" xml:space="preserve">
<style type="text/css">
	.st0{fill:#7700FF;}
	.st1{fill:#CCCCCC;}
	.st2{fill:#36D9FF;}
	.st3{fill:#FFC000;}
	.st4{fill:#EAEAEA;}
	.st5{fill:#E22624;}
</style>
<g>
	<polygon class="st0" points="76.3,0.2 33.9,42.6 76.3,85 84.8,76.5 50.8,42.6 84.8,8.6 	"/>
	<polygon class="st1" points="93.3,17.1 84.8,25.6 101.7,42.6 84.8,59.5 93.3,68 118.7,42.6 	"/>
	<rect x="70.3" y="36.6" transform="matrix(0.7071 -0.7071 0.7071 0.7071 -7.7617 66.4179)" class="st2" width="12" height="12"/>
	<rect x="19.4" y="53.5" transform="matrix(0.7071 -0.7071 0.7071 0.7071 -34.6734 35.3884)" class="st3" width="12" height="12"/>
	<rect x="2.4" y="70.5" transform="matrix(0.7071 -0.7071 0.7071 0.7071 -51.644 28.359)" class="st4" width="12" height="12"/>
	<rect x="15.9" y="79" transform="matrix(0.7071 -0.7071 0.7071 0.7071 -50.1881 48.8443)" class="st5" width="36" height="12"/>
	<rect x="2.4" y="104.5" transform="matrix(0.7071 -0.7071 0.7071 0.7071 -75.644 38.3001)" class="st4" width="12" height="12"/>
	<rect x="43.1" y="91.7" transform="matrix(0.7071 -0.7071 0.7071 0.7071 -52.9749 67.5722)" class="st3" width="24" height="12"/>
	<rect x="27.9" y="112.9" transform="matrix(0.7071 -0.7071 0.7071 0.7071 -74.1881 58.7854)" class="st4" width="12" height="12"/>
</g>
</svg>
